<?xml version="1.0"?>
<svg xmlns="http://www.w3.org/2000/svg" id="Capa_1" enable-background="new 0 0 512 512" height="512px" viewBox="0 0 512 512" width="512px" class=""><g><g><path d="m497 482h-6v-247.017c12.295-11.504 20-27.856 20-45.983v-32l-.011-.001c0-1.882-.344-3.772-1.063-5.569l-40-100c-2.276-5.695-7.792-9.43-13.926-9.43h-65v-27c0-4.952-2.444-9.584-6.531-12.38-4.088-2.796-9.29-3.395-13.905-1.6l-43.926 17.082c-5.971-10.782-17.464-18.102-30.638-18.102h-80c-13.208 0-24.729 7.357-30.686 18.186l-44.954-17.195c-4.61-1.765-9.795-1.146-13.862 1.653-4.068 2.798-6.498 7.419-6.498 12.356v27h-64c-6.134 0-11.649 3.734-13.927 9.429l-40 100c-.719 1.797-1.062 3.688-1.062 5.569l-.011.002v32c0 18.126 7.705 34.478 20 45.983v247.017h-6c-8.284 0-15 6.716-15 15s6.716 15 15 15h482c8.284 0 15-6.716 15-15s-6.716-15-15-15zm-112-293c0 18.196-14.804 33-33 33s-33-14.804-33-33v-17h66zm-96 0c0 18.196-14.804 33-33 33s-33-14.804-33-33v-17h66zm-96 0c0 18.196-14.804 33-33 33s-33-14.804-33-33v-17h66zm-96 0c0 18.196-14.804 33-33 33s-33-14.804-33-33v-17h66zm318-17h66v17c0 18.196-14.804 33-33 33s-33-14.804-33-33zm-54-108.927-30-11.667v-2.812l30-11.667zm-150-28.073c0-2.757 2.243-5 5-5h80c2.757 0 5 2.243 5 5v3.333 23.333 3.334c0 2.757-2.243 5-5 5h-80c-2.757 0-5-2.243-5-5v-3.333-23.333zm-61 1.798 31 11.858v2.688l-31 11.858zm-83.845 35.202h53.845v13c0 4.937 2.43 9.558 6.497 12.357 2.536 1.746 5.508 2.643 8.504 2.643 1.808 0 3.623-.326 5.358-.99l44.955-17.196c5.958 10.829 17.478 18.186 30.686 18.186h80c13.174 0 24.667-7.319 30.638-18.102l43.926 17.082c1.758.684 3.601 1.02 5.436 1.02 2.981 0 5.939-.889 8.47-2.62 4.086-2.795 6.53-7.428 6.53-12.38v-13h54.845l28 70h-435.69zm44.845 410v-160h70v70h-15c-8.284 0-15 6.716-15 15s6.716 15 15 15h15v60zm100 0v-175c0-8.284-6.716-15-15-15h-100c-8.284 0-15 6.716-15 15v175h-30v-231.356c4.197.884 8.544 1.356 13 1.356 19.214 0 36.435-8.656 48-22.262 11.565 13.606 28.786 22.262 48 22.262s36.435-8.656 48-22.262c11.565 13.606 28.786 22.262 48 22.262s36.435-8.656 48-22.262c11.565 13.606 28.786 22.262 48 22.262s36.435-8.656 48-22.262c11.565 13.606 28.786 22.262 48 22.262 4.456 0 8.803-.472 13-1.356v231.356z" data-original="#000000" class="active-path" data-old_color="#000000" fill="#FFFFFF"/><path d="m416 292h-160c-8.284 0-15 6.716-15 15v110c0 8.284 6.716 15 15 15h160c8.284 0 15-6.716 15-15v-110c0-8.284-6.716-15-15-15zm-15 110h-130v-80h130z" data-original="#000000" class="active-path" data-old_color="#000000" fill="#FFFFFF"/></g></g> </svg>
